<?xml version="1.0" encoding="UTF-8" standalone="no"?>
<svg
   width="92.954987mm"
   height="95.555138mm"
   viewBox="0 0 92.954987 95.555139"
   version="1.1"
   id="svg39"
   sodipodi:docname="logo.svg"
   inkscape:version="1.1.2 (b8e25be833, 2022-02-05)"
   inkscape:export-filename="C:\Users\primaryuser\Desktop\192x192.png"
   inkscape:export-xdpi="51.097851"
   inkscape:export-ydpi="51.097851"
   xmlns:inkscape="http://www.inkscape.org/namespaces/inkscape"
   xmlns:sodipodi="http://sodipodi.sourceforge.net/DTD/sodipodi-0.dtd"
   xmlns="http://www.w3.org/2000/svg"
   xmlns:svg="http://www.w3.org/2000/svg">
  <defs
     id="defs43" />
  <sodipodi:namedview
     id="namedview41"
     pagecolor="#ffffff"
     bordercolor="#666666"
     borderopacity="1.0"
     inkscape:pageshadow="2"
     inkscape:pageopacity="0.0"
     inkscape:pagecheckerboard="0"
     inkscape:document-units="mm"
     showgrid="false"
     inkscape:zoom="1.5819939"
     inkscape:cx="163.40139"
     inkscape:cy="164.98167"
     inkscape:window-width="1920"
     inkscape:window-height="1017"
     inkscape:window-x="-8"
     inkscape:window-y="-8"
     inkscape:window-maximized="1"
     inkscape:current-layer="svg39" />
  <rect
     style="fill:#f9e3e3;fill-opacity:1;stroke:none;stroke-width:0;stroke-miterlimit:4;stroke-dasharray:none"
     id="rect17483"
     width="92.955223"
     height="95.555382"
     x="-0.0026132304"
     y="-0.0026132304" />
  <path
     style="fill:#330080;stroke-width:0.235303"
     d="M 6.712077,93.75072 5.7674518,93.07316 V 82.291968 71.510777 h 5.4177032 5.417706 V 82.969529 94.42828 H 12.12978 7.656702 Z M 20.770328,47.895782 V 2.7582626 h 32.797868 c 35.642365,0 33.934165,-0.053743 34.661001,1.0904863 0.481709,0.758332 0.481709,87.3357361 0,88.0940671 C 87.502361,93.08705 89.210561,93.0333 53.568196,93.0333 H 20.770328 Z M 5.7674518,58.955969 V 48.194706 h 5.4177032 5.417706 V 58.955969 69.717233 H 11.185155 5.7674518 Z m 0,-23.316069 V 24.878636 h 5.4177032 5.417706 V 35.6399 46.401162 H 11.185155 5.7674518 Z M 5.8295495,12.926083 5.9063826,2.7670734 6.6759887,2.21464 7.4455965,1.6622078 12.024234,1.5989788 16.602876,1.5357498 V 12.31042 23.085095 H 11.177805 5.7527397 Z"
     id="path4535" />
  <path
     style="fill:none;stroke-width:0;stroke-miterlimit:4;stroke-dasharray:none;stroke:none"
     d="m 98.801961,245.0428 c -4.240058,-3.3571 -7.653472,-6.29885 -7.585365,-6.53722 0.06811,-0.23837 13.435594,-17.10541 29.705524,-37.48232 l 29.5817,-37.04892 3.28821,2.62501 c 1.80853,1.44376 5.33638,4.23047 7.83969,6.19269 2.50331,1.96222 4.49446,3.77572 4.42479,4.02999 -0.16066,0.58637 -57.99082,73.04744 -58.88335,73.78071 -0.41065,0.33738 -3.58907,-1.77365 -8.371199,-5.55994 z"
     id="path11351"
     transform="scale(0.26458333)" />
  <g
     id="g12282"
     transform="matrix(0.82290126,0,0,0.77300522,10.478842,-1.067159)">
    <path
       id="path6245"
       style="fill:#ffcc00;stroke-width:0.395389"
       d="M 54.634704,8.5294745 A 22.243856,22.243857 0 0 0 32.390969,30.77321 22.243856,22.243857 0 0 0 54.634704,53.016946 22.243856,22.243857 0 0 0 76.878444,30.77321 22.243856,22.243857 0 0 0 54.634704,8.5294745 Z M 54.385269,13.778422 A 16.495444,16.495445 0 0 1 70.880416,30.273568 16.495444,16.495445 0 0 1 54.385269,46.768716 16.495444,16.495445 0 0 1 37.889351,30.273568 16.495444,16.495445 0 0 1 54.385269,13.778422 Z" />
    <path
       style="fill:#ffcc00;fill-opacity:1;stroke:none;stroke-width:0;stroke-miterlimit:4;stroke-dasharray:none"
       d="m 26.141352,64.83424 -2.129853,-1.703951 7.859346,-9.843059 c 4.322641,-5.413681 7.893113,-9.877385 7.934383,-9.919337 0.061,-0.06201 0.475194,0.243861 2.214182,1.635106 l 2.139148,1.711389 -5.894784,7.382317 c -3.24213,4.060274 -6.796265,8.513188 -7.898075,9.895369 -1.101809,1.382178 -2.023811,2.520492 -2.048893,2.529583 -0.02508,0.0091 -1.004036,-0.750245 -2.175454,-1.687417 z"
       id="path11942-8" />
    <path
       style="fill:#ffcc00;fill-opacity:1;stroke:none;stroke-width:0;stroke-miterlimit:4;stroke-dasharray:none"
       d="m 54.301094,74.30032 -2.72757,0.0089 -0.05334,-12.595724 c -0.02933,-6.927649 -0.04857,-12.64364 -0.04274,-12.7022 0.0086,-0.08655 0.523049,-0.108156 2.750062,-0.115455 l 2.739476,-0.009 0.0398,9.446984 c 0.02189,5.19584 0.04708,10.89318 0.05598,12.660758 0.0089,1.767574 0.0049,3.232439 -0.009,3.255252 -0.01382,0.02282 -1.252551,0.04551 -2.752714,0.05042 z"
       id="path11942-8-0" />
    <path
       style="fill:#ffcc00;fill-opacity:1;stroke:none;stroke-width:0;stroke-miterlimit:4;stroke-dasharray:none"
       d="M 80.114633,66.168439 77.917496,67.784703 70.44398,57.645587 C 66.333547,52.069073 62.946046,47.46497 62.916206,47.414248 c -0.04411,-0.07497 0.35854,-0.395886 2.152463,-1.715539 L 67.275396,44.075391 72.880484,51.68 c 3.082799,4.182533 6.464106,8.768062 7.514021,10.190064 1.049912,1.421999 1.910807,2.607202 1.913096,2.633783 0.0023,0.02659 -0.984544,0.775647 -2.192968,1.664592 z"
       id="path11942-8-5" />
  </g>
  <text
     xml:space="preserve"
     style="font-style:normal;font-weight:normal;font-size:20.4763px;line-height:1.25;font-family:sans-serif;fill:#c49e91;fill-opacity:1;stroke:none;stroke-width:0.511908"
     x="28.414125"
     y="73.904938"
     id="text13862"><tspan
       sodipodi:role="line"
       style="fill:#c49e91;fill-opacity:1;stroke-width:0.511908"
       x="28.414125"
       y="73.904938"
       id="tspan15886">AaAa</tspan></text>
  <text
     xml:space="preserve"
     style="font-style:normal;font-weight:normal;font-size:20.4763px;line-height:1.25;font-family:sans-serif;fill:#c49e91;fill-opacity:1;stroke:none;stroke-width:0.511908"
     x="28.414127"
     y="89.072342"
     id="text13862-6"><tspan
       sodipodi:role="line"
       style="fill:#c49e91;fill-opacity:1;stroke-width:0.511908"
       x="28.414127"
       y="89.072342"
       id="tspan15886-7">AaAa</tspan></text>
</svg>
