<?xml version="1.0" encoding="UTF-8" standalone="no"?>
<svg
   width="512mm"
   height="512mm"
   viewBox="0 0 512 512"
   version="1.1"
   id="svg39"
   sodipodi:docname="logo.svg"
   inkscape:version="1.1.2 (b8e25be833, 2022-02-05)"
   xmlns:inkscape="http://www.inkscape.org/namespaces/inkscape"
   xmlns:sodipodi="http://sodipodi.sourceforge.net/DTD/sodipodi-0.dtd"
   xmlns="http://www.w3.org/2000/svg"
   xmlns:svg="http://www.w3.org/2000/svg">
  <defs
     id="defs43" />
  <sodipodi:namedview
     id="namedview41"
     pagecolor="#ffffff"
     bordercolor="#666666"
     borderopacity="1.0"
     inkscape:pageshadow="2"
     inkscape:pageopacity="0.0"
     inkscape:pagecheckerboard="0"
     inkscape:document-units="mm"
     showgrid="false"
     inkscape:zoom="0.27965965"
     inkscape:cx="1117.4297"
     inkscape:cy="876.06488"
     inkscape:window-width="1920"
     inkscape:window-height="1017"
     inkscape:window-x="-8"
     inkscape:window-y="-8"
     inkscape:window-maximized="1"
     inkscape:current-layer="svg39"
     height="512mm"
     scale-x="1" />
  <path
     style="fill:#330080;stroke-width:1.28019"
     d="m 42.816725,508.24826 -5.073102,-3.73452 V 445.09097 385.6682 h 29.095774 29.09579 v 63.15728 63.15729 H 71.912509 47.889837 Z M 118.31659,255.50925 V 1.0404712 h 176.14096 c 191.41737,0 182.24348,-0.29622052 186.14696,6.0104359 2.58701,4.1797109 2.58701,492.7367829 0,496.9164829 -3.90348,6.30669 5.27041,6.01044 -186.14696,6.01044 H 118.31659 Z m -80.572967,60.96053 v -59.31294 h 29.095774 29.09579 v 59.31294 59.31293 H 66.839397 37.743623 Z m 0,-128.51137 v -59.31295 h 29.095774 29.09579 v 59.31295 59.31295 H 66.839397 37.743623 Z M 38.07711,62.766306 38.489746,6.7728129 42.622912,3.7279569 46.756092,0.68312368 71.345673,0.33461526 95.935268,-0.01388186 V 59.372963 118.75992 H 66.799927 37.664601 Z"
     id="path4535"
     sodipodi:nodetypes="cccccccccccccssssccccccccccccccccccccccccccccccc" />
  <g
     id="g12282"
     transform="matrix(4.4193919,0,0,4.1514252,63.046144,-14.842624)">
    <path
       id="path6245"
       style="fill:#ffcc00;stroke-width:0.395389"
       d="M 54.634704,8.5294745 A 22.243856,22.243857 0 0 0 32.390969,30.77321 22.243856,22.243857 0 0 0 54.634704,53.016946 22.243856,22.243857 0 0 0 76.878444,30.77321 22.243856,22.243857 0 0 0 54.634704,8.5294745 Z M 54.385269,13.778422 A 16.495444,16.495445 0 0 1 70.880416,30.273568 16.495444,16.495445 0 0 1 54.385269,46.768716 16.495444,16.495445 0 0 1 37.889351,30.273568 16.495444,16.495445 0 0 1 54.385269,13.778422 Z" />
    <path
       style="fill:#ffcc00;fill-opacity:1;stroke:none;stroke-width:0;stroke-miterlimit:4;stroke-dasharray:none"
       d="m 26.141352,64.83424 -2.129853,-1.703951 7.859346,-9.843059 c 4.322641,-5.413681 7.893113,-9.877385 7.934383,-9.919337 0.061,-0.06201 0.475194,0.243861 2.214182,1.635106 l 2.139148,1.711389 -5.894784,7.382317 c -3.24213,4.060274 -6.796265,8.513188 -7.898075,9.895369 -1.101809,1.382178 -2.023811,2.520492 -2.048893,2.529583 -0.02508,0.0091 -1.004036,-0.750245 -2.175454,-1.687417 z"
       id="path11942-8" />
    <path
       style="fill:#ffcc00;fill-opacity:1;stroke:none;stroke-width:0;stroke-miterlimit:4;stroke-dasharray:none"
       d="m 54.301094,74.30032 -2.72757,0.0089 -0.05334,-12.595724 c -0.02933,-6.927649 -0.04857,-12.64364 -0.04274,-12.7022 0.0086,-0.08655 0.523049,-0.108156 2.750062,-0.115455 l 2.739476,-0.009 0.0398,9.446984 c 0.02189,5.19584 0.04708,10.89318 0.05598,12.660758 0.0089,1.767574 0.0049,3.232439 -0.009,3.255252 -0.01382,0.02282 -1.252551,0.04551 -2.752714,0.05042 z"
       id="path11942-8-0" />
    <path
       style="fill:#ffcc00;fill-opacity:1;stroke:none;stroke-width:0;stroke-miterlimit:4;stroke-dasharray:none"
       d="M 80.114633,66.168439 77.917496,67.784703 70.44398,57.645587 C 66.333547,52.069073 62.946046,47.46497 62.916206,47.414248 c -0.04411,-0.07497 0.35854,-0.395886 2.152463,-1.715539 L 67.275396,44.075391 72.880484,51.68 c 3.082799,4.182533 6.464106,8.768062 7.514021,10.190064 1.049912,1.421999 1.910807,2.607202 1.913096,2.633783 0.0023,0.02659 -0.984544,0.775647 -2.192968,1.664592 z"
       id="path11942-8-5" />
  </g>
  <text
     xml:space="preserve"
     style="font-style:normal;font-weight:normal;font-size:98.356px;line-height:1.25;font-family:sans-serif;fill:#c49e91;fill-opacity:1;stroke:none;stroke-width:2.459;stroke-miterlimit:4;stroke-dasharray:none"
     x="191.68536"
     y="388.26495"
     id="text13862"><tspan
       sodipodi:role="line"
       style="fill:#c49e91;fill-opacity:1;stroke-width:2.459;stroke-miterlimit:4;stroke-dasharray:none"
       x="191.68536"
       y="388.26495"
       id="tspan15886">Web</tspan></text>
  <text
     xml:space="preserve"
     style="font-style:normal;font-weight:normal;font-size:98.356px;line-height:1.25;font-family:sans-serif;fill:#c49e91;fill-opacity:1;stroke:none;stroke-width:2.45889"
     x="162.7742"
     y="475.32932"
     id="text13862-6"><tspan
       sodipodi:role="line"
       style="fill:#c49e91;fill-opacity:1;stroke-width:2.45889"
       x="162.7742"
       y="475.32932"
       id="tspan15886-7">Story</tspan></text>
</svg>
